<?xml version="1.0" encoding="iso-8859-1"?>
<!-- Generator: Adobe Illustrator 21.0.2, SVG Export Plug-In . SVG Version: 6.00 Build 0)  -->
<svg version="1.1" xmlns="http://www.w3.org/2000/svg" xmlns:xlink="http://www.w3.org/1999/xlink" x="0px" y="0px"
	 viewBox="0 0 287.355 243.323" style="enable-background:new 0 0 287.355 243.323;" xml:space="preserve">
<g id="p1b">
	<path style="fill:#EFCECE;" d="M48.042,64.291v79.003c0,33.983,27.549,61.532,61.532,61.532h0.76v38.498h66.687v-38.498h0.76
		c33.983,0,61.532-27.549,61.532-61.532V64.291H48.042z"/>
	<polygon style="fill:#DB8D98;" points="143.677,111.634 130.911,139.96 156.444,139.96 	"/>
	<circle style="fill:#AD7D91;" cx="143.677" cy="172.432" r="8.959"/>
	<polygon style="opacity:0.2;fill:#BC5776;" points="110.334,234.622 177.021,204.826 110.334,204.826 	"/>
	<g style="opacity:0.33;">
		<circle style="fill:#BC5776;" cx="95.357" cy="160.681" r="17.399"/>
		<circle style="fill:#BC5776;" cx="191.998" cy="160.681" r="17.399"/>
	</g>
	<g>
		<path style="fill:#CC6B1B;" d="M142.135,0c0.523,0,1.024,0.02,1.542,0.024C144.196,0.02,144.697,0,145.219,0H142.135z"/>
		<path style="fill:#CC6B1B;" d="M240.788,51.123c-7.777-26.097-39.298-50.664-97.111-51.099
			C85.864,0.459,54.344,25.026,46.566,51.123C21.215,65.015,0,96.276,0,132.618c0,49.251,38.959,89.176,74.378,89.176v-28.041
			c-15.916-11.122-26.337-29.569-26.337-50.46V73.595c4.656,8.951,14.008,15.066,24.796,15.066c9.938,0,18.658-5.192,23.613-13.007
			c4.955,7.815,13.675,13.007,23.613,13.007c9.938,0,18.658-5.192,23.613-13.007c4.955,7.815,13.675,13.007,23.613,13.007
			c9.938,0,18.658-5.192,23.613-13.007c4.955,7.815,13.675,13.007,23.613,13.007c10.788,0,20.14-6.115,24.796-15.066v69.699
			c0,20.891-10.42,39.337-26.337,50.46v28.041c35.419,0,74.378-39.925,74.378-89.176C287.355,96.276,266.14,65.015,240.788,51.123z"
			/>
	</g>
	<circle style="fill:#3B3B44;" cx="100.453" cy="119.479" r="10"/>
	<circle style="fill:#3B3B44;" cx="186.901" cy="119.479" r="10"/>
</g>
<g id="Layer_1">
</g>
</svg>
