<?xml version="1.0" encoding="utf-8"?>
<!-- Generator: Adobe Illustrator 19.1.0, SVG Export Plug-In . SVG Version: 6.00 Build 0)  -->
<svg version="1.1" id="Layer_1" xmlns="http://www.w3.org/2000/svg" xmlns:xlink="http://www.w3.org/1999/xlink" x="0px" y="0px"
	 viewBox="0 0 47.5 15.4" style="enable-background:new 0 0 47.5 15.4;" xml:space="preserve">
<style type="text/css">
	.st0{fill:#F7F7F7;}
</style>
<g>
	<path class="st0" d="M7.6,0.2v12.5h3.6v1.5H2.3v-1.5h3.6v-10L2.4,4.8V2.9L7,0.2H7.6z"/>
	<path class="st0" d="M13,4.6C13,2,14.9,0,17.5,0c2.6,0,4.4,2,4.4,4.6c0,1-0.3,1.8-0.7,2.6L17,14.3h-1.9l3-5.3
		c-0.2,0.1-0.5,0.1-0.8,0.1C14.8,9.1,13,7.2,13,4.6z M20.1,4.6c0-1.7-1.1-3-2.7-3c-1.5,0-2.7,1.2-2.7,3c0,1.8,1.1,3,2.7,3
		C19,7.5,20.1,6.4,20.1,4.6z"/>
	<path class="st0" d="M30.6,11.2h-6.1v-0.7l5.9-10.3h1.9v9.4h2.1v1.6h-2.1v3h-1.7V11.2z M30.6,9.6V2.8l-3.8,6.8H30.6z"/>
	<path class="st0" d="M39.3,10.2c0.2,1.7,1.3,2.5,2.7,2.5c1.7,0,2.8-1.3,2.8-3.1s-1-3.1-2.7-3.1c-1.3,0-2.5,0.7-3.1,1.6l-1.1-0.2
		l0.8-7.6h6.8v1.6h-5.4l-0.5,4.1c0.6-0.5,1.7-0.9,2.6-0.9c2.7,0,4.3,1.8,4.3,4.7c0,2.8-1.9,4.7-4.6,4.7c-2.3,0-4.1-1.3-4.4-3.8
		L39.3,10.2z"/>
</g>
</svg>
