<?xml version="1.0" encoding="utf-8"?>
<!-- Generator: Adobe Illustrator 19.1.0, SVG Export Plug-In . SVG Version: 6.00 Build 0)  -->
<svg version="1.1" id="Layer_1" xmlns="http://www.w3.org/2000/svg" xmlns:xlink="http://www.w3.org/1999/xlink" x="0px" y="0px"
	 viewBox="0 0 47.5 15.4" style="enable-background:new 0 0 47.5 15.4;" xml:space="preserve">
<style type="text/css">
	.st0{fill:#F7F7F7;}
</style>
<g>
	<path class="st0" d="M1.2,13.7l5.5-6.8c0.9-1.1,1.1-1.8,1.1-2.7c0-0.7-0.2-1.2-0.5-1.6C7,2.2,6.5,2,5.7,2C4.4,2,3.5,3,3.2,4.5
		L1.5,4.2c0.2-2.2,2-3.8,4.2-3.8c1.4,0,2.4,0.5,3,1.2c0.6,0.7,0.9,1.6,0.9,2.7c0,1.2-0.4,2.1-1.1,3L4,12.9h5.9v1.6H1.2V13.7z"/>
	<path class="st0" d="M13.1,7.5c0-4.4,1.9-7.2,5.1-7.2s5.1,2.8,5.1,7.2s-1.9,7.2-5.1,7.2S13.1,11.9,13.1,7.5z M15.6,11.3l4.2-8.9
		c-0.4-0.3-1-0.5-1.5-0.5c-2.1,0-3.4,2.1-3.4,5.6C14.8,9.1,15.1,10.4,15.6,11.3z M21.6,7.5c0-1.6-0.3-2.9-0.7-3.8l-4.2,8.9
		c0.4,0.3,1,0.5,1.5,0.5C20.3,13.1,21.6,10.9,21.6,7.5z"/>
	<path class="st0" d="M32,0.5V13h3.6v1.5h-8.9V13h3.6V3l-3.5,2.1V3.3l4.5-2.8H32z"/>
	<path class="st0" d="M39.2,10.5c0.2,1.7,1.3,2.5,2.7,2.5c1.7,0,2.8-1.3,2.8-3.1s-1-3.1-2.7-3.1c-1.3,0-2.5,0.7-3.1,1.6l-1.1-0.2
		l0.8-7.6h6.8v1.6h-5.4l-0.5,4.1c0.6-0.5,1.7-0.9,2.6-0.9c2.7,0,4.3,1.8,4.3,4.7c0,2.8-1.9,4.7-4.6,4.7c-2.3,0-4.1-1.3-4.4-3.8
		L39.2,10.5z"/>
</g>
</svg>
